<?xml version="1.0" standalone="no"?>
<!DOCTYPE svg PUBLIC "-//W3C//DTD SVG 1.1//EN" "http://www.w3.org/Graphics/SVG/1.1/DTD/svg11.dtd" >
<svg xmlns="http://www.w3.org/2000/svg">
<metadata>Generated by IcoMoon</metadata>
<defs>
<font id="kmcng-icon-pack" horiz-adv-x="1024">
<font-face units-per-em="1024" ascent="960" descent="-64" />
<missing-glyph horiz-adv-x="1024" />
<glyph unicode="&#x20;" horiz-adv-x="512" d="" />
<glyph unicode="&#xe900;" glyph-name="Report" d="M627.81 680.205v50.462h-291.81v-216.204l183.509-0.001v-50.462h230.608v216.205h-122.308zM750.118 760.205c44.183 0 80-35.817 80-80v-216.205c0-44.183-35.817-80-80-80h-230.608c-33.75 0-62.618 20.899-74.37 50.462h-109.14c-44.183 0-80 35.817-80 80v216.204c0 44.183 35.817 80 80 80h291.81c33.75 0 62.618-20.899 74.37-50.462h47.938zM298.667 768c23.564 0 42.667-19.103 42.667-42.667v-597.333c0-23.564-19.103-42.667-42.667-42.667s-42.667 19.103-42.667 42.667v597.333c0 23.564 19.103 42.667 42.667 42.667z" />
<glyph unicode="&#xe901;" glyph-name="tree-arrow-down" d="M583.191 183.587c-39.318-58.977-103.219-58.745-142.383 0l-369.617 554.426c-39.318 58.977-13.943 106.787 56.428 106.787h768.76c70.483 0 95.592-48.042 56.428-106.787l-369.617-554.426z" />
<glyph unicode="&#xe902;" glyph-name="Copy-to-clipboard" d="M512 768v-153.6h102.4v153.35c0 56.882-45.837 102.65-102.38 102.65h-307.239c-56.944 0-102.38-45.837-102.38-102.38v-307.239c0-56.944 45.958-102.38 102.65-102.38h153.35v102.4h-153.6v307.2h307.2zM460.8 204.8v153.6h-102.4v-153.35c0-56.882 45.837-102.65 102.38-102.65h307.239c56.944 0 102.38 45.837 102.38 102.38v307.239c0 56.944-45.958 102.38-102.65 102.38h-153.35v-102.4h153.6v-307.2h-307.2zM358.4 511.75c0 56.692 45.768 102.65 102.65 102.65h153.35v-102.4h-153.6v-153.6h-102.4v153.35z" />
<glyph unicode="&#xe903;" glyph-name="folder_large" d="M85.333-0c-47.128 0-85.333 38.205-85.333 85.333v-85.333 768c0 47.128 38.205 85.333 85.333 85.333h341.333c47.128 0 85.333-80.872 85.333-128h384c47.128 0 85.333-38.205 85.333-85.333v-554.667c0-47.128 4.462-85.333-42.667-85.333h-853.333zM896 640h-469.333v128h-341.333v-682.667h810.667v554.667z" />
<glyph unicode="&#xe904;" glyph-name="gear" d="M978.271 372.333c-3.306-28.86-27.661-50.695-56.709-50.843h-7.822c-26.075-0.127-49.386-16.283-58.656-40.655s-2.591-51.936 16.809-69.361c22.306-20.559 25.032-54.822 6.258-78.65-22.436-27.88-48.028-53.065-76.264-75.052-10.050-7.873-22.433-12.179-35.199-12.241-16.181 0.043-31.618 6.799-42.63 18.655-12.821 13.195-30.49 20.56-48.887 20.376-7.495 0.035-14.928-1.358-21.901-4.107-24.423-10.265-39.98-34.534-39.11-61.011 0.964-30.074-21.334-55.844-51.234-59.212-35.096-3.896-70.521-3.804-105.597 0.274-30.234 3.537-52.406 30.126-50.452 60.503 1.326 26.727-14.12 51.456-38.719 61.989-7.083 2.859-14.655 4.307-22.293 4.263-18.385 0.162-36.041-7.183-48.887-20.337-20.545-22.631-55.151-25.372-79.002-6.258-27.42 22.176-52.219 47.409-73.918 75.208-18.768 23.533-16.029 57.597 6.258 77.829 19.459 17.999 25.833 46.119 16.035 70.75-9.38 23.205-31.686 38.588-56.709 39.11h-2.347c-30.233-0.4-56.27 21.241-61.402 51.038-4.302 35.447-4.302 71.284 0 106.731 3.11 29.755 28.77 51.994 58.665 50.843 27.048-1.046 52.119 14.12 63.749 38.562 10.232 24.769 3.816 53.294-16.035 71.297-22.301 20.546-25.027 54.796-6.258 78.611 22.36 27.828 47.815 53.021 75.873 75.091 10.205 7.863 22.707 12.163 35.59 12.241 16.204-0.050 31.653-6.853 42.63-18.773 12.871-13.103 30.521-20.403 48.887-20.22 7.481-0.079 14.91 1.248 21.901 3.911 24.449 10.298 40.006 34.615 39.11 61.129-0.941 30.051 21.355 55.786 51.234 59.134 35.097 3.878 70.52 3.786 105.597-0.274 30.208-3.555 52.364-30.108 50.452-60.464-1.5-26.791 13.998-51.634 38.719-62.067 7.091-2.824 14.66-4.258 22.293-4.224 18.377-0.158 36.027 7.17 48.887 20.298 20.415 22.547 54.848 25.322 78.611 6.336 27.577-22.102 52.511-47.312 74.309-75.13 18.897-23.635 16.157-57.89-6.258-78.22-19.482-17.63-25.988-45.495-16.325-69.93s33.466-40.314 59.737-39.852c30.035 0.256 55.847-21.254 61.011-50.843 4.083-35.368 4.083-71.089 0-106.457v0zM900.834 463.185c-49.902 1.171-94.389 31.741-113.374 77.906s-8.873 99.187 25.768 135.126c-15.257 18.736-32.283 35.959-50.843 51.429-24.313-22.662-56.325-35.243-89.561-35.199-15.966-0.096-31.79 3.002-46.541 9.113-46.373 19.611-76.654 64.909-77.046 115.257-24.066 2.229-48.287 2.229-72.353 0-2.717-48.493-34.833-90.383-80.957-105.597-13.083-8.302-27.721-13.852-43.021-16.309-33.054-0.041-64.903 12.405-89.17 34.847-19.095-15.433-36.646-32.683-52.407-51.508 35.033-36.194 45.18-89.759 25.812-136.259-20.198-45.739-64.997-75.696-114.983-76.89-2.282-24.45-2.413-49.053-0.391-73.526 50.024-0.966 94.702-31.535 113.726-77.811s8.762-99.429-26.12-135.299c15.452-18.572 32.461-35.791 50.843-51.469 24.384 22.549 56.35 35.112 89.561 35.199 16.099 0.122 32.058-2.991 46.932-9.152 46.395-19.542 76.694-64.837 77.046-115.178 24.065-2.249 48.288-2.249 72.353 0 1.554 49.7 31.972 93.92 77.829 113.145 14.543 5.851 30.083 8.826 45.758 8.761 33.189 0.102 65.186-12.362 89.561-34.886 18.967 15.575 36.506 32.813 52.407 51.508-35.215 36.1-45.384 89.78-25.812 136.259 19.743 46.162 64.782 76.403 114.983 77.203 2.359 24.439 2.359 49.048 0 73.487v-0.156zM512.082 270.648c-63.425-0.253-120.746 37.758-145.193 96.283s-11.198 126.015 33.561 170.953c44.759 44.938 112.196 58.458 170.818 34.245s96.862-81.381 96.863-144.807c0.13-86.338-69.71-156.458-156.048-156.674v0zM512.082 504.994c-43.148-0.216-77.972-35.331-77.828-78.479s35.2-78.031 78.349-77.959c43.148 0.072 78.089 35.070 78.090 78.219 0.011 20.82-8.279 40.785-23.034 55.474s-34.757 22.889-55.577 22.785v-0.039z" />
<glyph unicode="&#xe905;" glyph-name="help" d="M42.667 426.667c0-259.072 210.261-469.333 469.333-469.333s469.333 210.261 469.333 469.333c0 259.072-210.261 469.333-469.333 469.333s-469.333-210.261-469.333-469.333zM128 426.667c0 211.68 172.32 384 384 384s384-172.32 384-384c0-211.68-172.32-384-384-384s-384 172.32-384 384zM554.667 170.667v85.333h-85.333v-85.333h85.333zM341.333 525.917h101.625c2.25 42.375 30.75 69.75 73.875 69.75 42.75 0 71.25-25.875 71.25-61.5s-14.625-54-63-82.875c-51.75-30.375-72.375-64.125-67.5-123l0.75-21.75h99.375v19.875c0 36.75 13.875 55.125 63.75 84 52.875 31.125 80.25 70.5 80.25 127.125 0 85.5-70.875 145.125-178.125 145.125-115.125 0-180.375-64.5-182.25-156.75z" />
<glyph unicode="&#xe906;" glyph-name="image" d="M853.333 142.223v583.111h-682.667v-521.846l192 265.846 214.541-297.057 126.792 169.057 149.333-199.111zM42.667 768.393c0 46.911 37.959 84.941 84.956 84.941h768.755c46.92 0 84.956-38.324 84.956-84.941v-683.452c0-46.911-37.959-84.941-84.956-84.941h-768.755c-46.92 0-84.956 38.324-84.956 84.941v683.452zM704 512c35.346 0 64 28.654 64 64s-28.654 64-64 64c-35.346 0-64-28.654-64-64s28.654-64 64-64z" />
<glyph unicode="&#xe907;" glyph-name="picture" d="M213.333 576c0 35.328 28.672 64 64 64s64-28.672 64-64c0-35.371-28.672-64-64-64s-64 28.629-64 64zM597.333 554.667l-107.477-170.667-105.856 83.627-170.667-254.293h597.333l-213.333 341.333zM938.667 725.334v-597.333h-853.333v597.333h853.333zM1024 725.543c0 47.013-38.273 85.124-85.544 85.124h-852.911c-47.245 0-85.544-38.085-85.544-85.124v-597.752c0-47.013 38.273-85.124 85.544-85.124h852.911c47.245 0 85.544 38.085 85.544 85.124v597.752z" />
<glyph unicode="&#xe908;" glyph-name="refresh" d="M856.172 381.335c-0.879-0.968-1.466-2.229-2.345-2.933-0.586-2.493-0.879-5.103-1.466-7.597h-60.681c2.1 7.087 3.764 14.296 4.983 21.587l-94.978 64.263c-13.715 10.403-18.034 29.13-10.26 44.494 2.886 7.183 8.843 12.691 16.227 15.004s15.416 1.188 21.881-3.066l75.338-51.005c-1.286 118.505-73.777 224.57-183.684 268.756s-235.592 17.793-318.47-66.875h-75.924c88.642 123.72 246.815 176.275 391.816 130.186s243.861-180.343 244.89-332.565l75.924 51.24c6.465 4.254 14.497 5.379 21.881 3.066s13.341-7.821 16.227-15.004c7.707-15.334 3.395-33.987-10.26-44.377l-111.101-75.174zM316.384 459.942c-7.384-2.307-15.412-1.178-21.873 3.078l-70.647 47.691c-3.152-17.178-4.82-34.597-4.983-52.061 0.017-119.145 72.069-226.442 182.31-271.489s236.764-18.893 320.137 66.176h75.924c-89.019-124.136-247.966-176.554-393.311-129.708s-243.825 182.237-243.688 335.020c0.16 19.964 2.122 39.872 5.863 59.482l-81.494-55.112c-6.461-4.255-14.49-5.385-21.873-3.078s-13.343 7.808-16.235 14.986c-7.778 15.372-3.46 34.11 10.26 44.523l111.101 75.144c4.58 5.979 11.538 9.663 19.054 10.090 1.745 0.313 3.532 0.313 5.277 0 7.517-0.427 14.474-4.111 19.054-10.090l111.101-75.144c13.72-10.413 18.038-29.151 10.26-44.523-2.892-7.178-8.852-12.679-16.235-14.986z" />
<glyph unicode="&#xe909;" glyph-name="sound" d="M981.333 938.667l-682.496-152.96v-556.373c-127.104 25.131-256.171-71.296-256.171-177.237 0-91.179 71.296-137.429 148.693-137.429 91.947 0 192.512 65.195 192.64 197.888v465.067l512 104.917v-367.957c-126.933 25.045-256-70.997-256-176.683 0-91.435 73.173-137.899 150.229-137.899 91.307 0 190.976 65.109 191.104 197.803v740.864z" />
<glyph unicode="&#xe90a;" glyph-name="user" d="M256.794-0c39.532 123.944 119.189 213.333 264.916 213.333s225.384-89.389 264.916-213.333h86.127c-49.117 171.134-157.569 298.667-351.043 298.667s-301.926-127.533-351.043-298.667h86.127zM521.71 384c-141.385 0-256 114.615-256 256s114.615 256 256 256c141.385 0 256-114.615 256-256s-114.615-256-256-256v0zM521.71 810.667c-94.257 0-170.667-76.41-170.667-170.667s76.41-170.667 170.667-170.667c94.257 0 170.667 76.41 170.667 170.667s-76.41 170.667-170.667 170.667v0z" />
<glyph unicode="&#xe90b;" glyph-name="refresh_small" d="M512 834.327c-211.203 0-384-172.797-384-384h-128l191.993-256 192.007 256h-128c0 142.077 113.923 256 256 256v128zM832.007 706.327l-192.007-256h128c0-142.077-113.923-256-256-256v-128c211.203 0 384 172.797 384 384h128l-191.993 256z" />
<glyph unicode="&#xe90c;" glyph-name="arrow_backward" d="M243.2 524.8l313.008 313.008c25.069 25.069 25.506 65.277 0.067 90.717l1.050-1.050c-25.032 25.032-66.030 24.62-90.762-0.112l-421.127-421.127c-25.094-25.094-24.731-66.142 0-90.873l421.127-421.127c25.094-25.094 65.322-25.551 90.762-0.112l-1.050-1.050c25.032 25.032 25.029 65.621-0.067 90.717l-313.008 313.008h716.904c35.289 0 63.896 28.407 63.896 64v0c0 35.346-28.715 64-63.896 64h-716.904z" />
<glyph unicode="&#xe90d;" glyph-name="arrow_forward" d="M780.8 524.8l-313.008 313.008c-25.069 25.069-25.506 65.277-0.067 90.717l-1.050-1.050c25.032 25.032 66.030 24.62 90.762-0.112l421.127-421.127c25.094-25.094 24.731-66.142 0-90.873l-421.127-421.127c-25.094-25.094-65.322-25.551-90.762-0.112l1.050-1.050c-25.032 25.032-25.029 65.621 0.067 90.717l313.008 313.008h-716.904c-35.289 0-63.896 28.407-63.896 64v0c0 35.346 28.715 64 63.896 64h716.904z" />
<glyph unicode="&#xe90e;" glyph-name="check_large" d="M105.894 490.897c-26.721 23.137-67.139 20.232-90.277-6.489s-20.232-67.139 6.489-90.277l348.444-301.714c27.72-24.003 69.9-19.854 92.413 9.091l547.556 704c21.7 27.901 16.674 68.11-11.226 89.811s-68.11 16.674-89.811-11.226l-506.14-650.752-297.447 257.556z" />
<glyph unicode="&#xe90f;" glyph-name="filter" d="M752.41 844.8h-480.765l242.343-307.639 238.423 307.639zM385.987 492.8l-298.79 379.296c-43.813 55.617-22.229 100.704 48.375 100.704h752.911c70.529 0 92.253-45.004 48.375-100.704l-298.79-379.296v-293.449c0-35.282-23.263-81.111-51.012-101.659l-150.056-111.117c-28.173-20.862-51.012-8.527-51.012 26.765v479.46z" />
<glyph unicode="&#xe910;" glyph-name="folder" d="M128 588.8h768v64h-448v128h-320v-192zM128 460.8v-320h768v320h-768zM576 780.8h358.918c49.199 0 89.082-40.21 89.082-89.602v-588.795c0-49.486-40.142-89.602-89.082-89.602h-845.836c-49.199 0-89.082 40.21-89.082 89.602v717.26c0 49.229 39.591 89.138 90 89.138h396c49.706 0 90-40.528 90-89.138v-38.862z" />
<glyph unicode="&#xe911;" glyph-name="magnifier" d="M630.849 155.35l163.087-161.301c33.877-33.506 88.91-32.999 121.714 1.131 32.641 33.961 31.64 87.998-1.693 121.146l-161.754 160.854c41.255 63.972 65.201 140.202 65.201 222.030 0 226.18-182.952 409.589-408.702 409.589s-408.702-183.409-408.702-409.589c0-226.18 182.952-409.589 408.702-409.589 81.916 0 158.197 24.149 222.147 65.729zM408.702 261.868c-130.65 0-236.617 106.232-236.617 237.343s105.967 237.343 236.617 237.343c130.65 0 236.617-106.232 236.617-237.343s-105.967-237.343-236.617-237.343z" />
<glyph unicode="&#xe912;" glyph-name="pen" d="M529.496 798.674l243.882-158.365-401.548-618.276-220.886-73.233-22.943 231.668 401.496 618.206zM564.653 852.79l243.131-159.78 66.54 102.449-9.488 78.422-152.267 98.919-82.267-18.854-65.649-101.156z" />
<glyph unicode="&#xe913;" glyph-name="share" d="M854.765 715.89l-265.718-265.718c-24.919-24.919-65.207-25.033-90.375 0.134-24.994 24.994-24.753 65.757-0.134 90.375l265.718 265.718h-129.819c-28.277 0-51.2 22.923-51.2 51.2s22.923 51.2 51.2 51.2h271.529c28.277 0 51.2-22.923 51.2-51.2v-271.529c0-28.277-22.923-51.2-51.2-51.2s-51.2 22.923-51.2 51.2v129.819zM448 844.8h-255.909c-71.086 0-128.091-57.552-128.091-128.546v-574.908c0-70.821 57.552-128.546 128.546-128.546h574.908c70.821 0 128.546 57.055 128.546 127.436v256.564h-128v-256.564c0 0.647-575.454 0.564-575.454 0.564-0.215 0-0.546 575.454-0.546 575.454 0 0.575 256 0.546 256 0.546v128z" />
<glyph unicode="&#xe914;" glyph-name="upload" d="M665.6 563.2h150.793c56.088 0 71.544 33.976 33.833 75.887l-271.387 301.615c-37.619 41.809-98.822 41.682-136.495-0.511l-268.388-300.592c-37.787-42.321-22.495-76.399 33.901-76.399h150.544v-256.126c0-28.223 22.712-51.074 50.728-51.074h205.744c27.638 0 50.728 22.867 50.728 51.074v256.126zM358.4 102.4c0 28.277 23.090 51.2 50.728 51.2h205.744c28.016 0 50.728-22.726 50.728-51.2 0-28.277-23.090-51.2-50.728-51.2h-205.744c-28.016 0-50.728 22.726-50.728 51.2z" />
<glyph unicode="&#xe915;" glyph-name="confirmation" d="M512-51.2c-282.77 0-512 229.23-512 512s229.23 512 512 512c282.77 0 512-229.23 512-512s-229.23-512-512-512zM512 51.2c226.216 0 409.6 183.384 409.6 409.6s-183.384 409.6-409.6 409.6c-226.216 0-409.6-183.384-409.6-409.6s183.384-409.6 409.6-409.6zM379.402 411.594c-24.348 14.379-55.743 6.298-70.122-18.050s-6.298-55.743 18.050-70.122l98.579-58.218c23.036-13.605 52.664-7.18 67.995 14.745l171.083 244.662c16.204 23.173 10.555 55.095-12.619 71.3s-55.095 10.555-71.3-12.619l-143.913-205.806-57.754 34.108z" />
<glyph unicode="&#xe916;" glyph-name="more" d="M921.6 358.4c56.554 0 102.4 45.846 102.4 102.4s-45.846 102.4-102.4 102.4c-56.554 0-102.4-45.846-102.4-102.4s45.846-102.4 102.4-102.4zM512 358.4c56.554 0 102.4 45.846 102.4 102.4s-45.846 102.4-102.4 102.4c-56.554 0-102.4-45.846-102.4-102.4s45.846-102.4 102.4-102.4zM102.4 358.4c56.554 0 102.4 45.846 102.4 102.4s-45.846 102.4-102.4 102.4c-56.554 0-102.4-45.846-102.4-102.4s45.846-102.4 102.4-102.4z" />
<glyph unicode="&#xe917;" glyph-name="trash" d="M307.2 768v101.92c0 28.542 23.195 51.68 51.048 51.68h307.504c28.193 0 51.048-22.7 51.048-51.68v-101.92h205.138c28.090 0 50.862-22.726 50.862-51.2 0-28.277-22.781-51.2-50.862-51.2h-51.538v-614.017c0-28.489-23.037-51.583-51.55-51.583h-613.699c-28.471 0-51.55 22.985-51.55 51.583v614.017h-51.538c-28.090 0-50.862 22.726-50.862 51.2 0 28.277 22.781 51.2 50.862 51.2h205.138zM409.6 768h204.8v51.2h-204.8v-51.2zM256 102.4h512v563.2h-512v-563.2z" />
<glyph unicode="&#xe918;" glyph-name="warning" d="M512-51.2c-282.77 0-512 229.23-512 512s229.23 512 512 512c282.77 0 512-229.23 512-512s-229.23-512-512-512zM512 51.2c226.216 0 409.6 183.384 409.6 409.6s-183.384 409.6-409.6 409.6c-226.216 0-409.6-183.384-409.6-409.6s183.384-409.6 409.6-409.6zM460.8 614.41c0 28.272 22.726 51.19 51.2 51.19 28.277 0 51.2-22.718 51.2-51.19v-153.62c0-28.272-22.726-51.19-51.2-51.19-28.277 0-51.2 22.718-51.2 51.19v153.62zM460.8 358.4h102.4v-102.4h-102.4v102.4z" />
<glyph unicode="&#xe919;" glyph-name="tree-arrow-right" d="M789.213 531.991c58.977-39.318 58.745-103.219 0-142.383l-554.426-369.617c-58.977-39.318-106.787-13.943-106.787 56.428v768.76c0 70.483 48.042 95.592 106.787 56.428l554.426-369.617z" />
<glyph unicode="&#xe91a;" glyph-name="check_small" d="M236.076 442.92c-28.503 31.411-77.073 33.769-108.484 5.266s-33.769-77.073-5.266-108.484l238.933-263.314c32.052-35.323 88.214-33.192 117.497 4.458l477.867 614.4c26.041 33.481 20.009 81.732-13.472 107.773s-81.732 20.009-107.773-13.472l-421.77-542.276-177.533 195.648z" />
<glyph unicode="&#xe91b;" glyph-name="close_small" d="M639.449 426.967l217.556 217.556c39.081 39.081 39.656 104.493-0.333 144.482-40.268 40.268-104.677 40.139-144.482 0.333l-217.556-217.556-217.556 217.556c-39.081 39.081-104.493 39.656-144.482-0.333-40.268-40.268-40.139-104.677-0.333-144.482l217.556-217.556-217.556-217.556c-39.081-39.081-39.656-104.493 0.333-144.482 40.268-40.268 104.677-40.139 144.482-0.333l217.556 217.556 217.556-217.556c39.081-39.081 104.493-39.656 144.482 0.333 40.268 40.268 40.139 104.677 0.333 144.482l-217.556 217.556z" />
<glyph unicode="&#xe91c;" glyph-name="dropdown_arrow_bottom" d="M158.373 659.178c-24.73 30.913-69.838 35.925-100.751 11.195s-35.925-69.838-11.195-100.751l409.6-512c28.695-35.869 83.25-35.869 111.945 0l409.6 512c24.73 30.913 19.718 76.021-11.195 100.751s-76.021 19.718-100.751-11.195l-353.627-442.034-353.627 442.034z" />
<glyph unicode="&#xe91d;" glyph-name="dropdown_arrow_left" d="M843.494 35.491c30.913-24.73 35.925-69.838 11.195-100.751s-69.838-35.925-100.751-11.195l-512 409.6c-35.869 28.695-35.869 83.25 0 111.945l512 409.6c30.913 24.73 76.021 19.718 100.751-11.195s19.718-76.021-11.195-100.751l-442.034-353.627 442.034-353.627z" />
<glyph unicode="&#xe91e;" glyph-name="dropdown_arrow_top" d="M158.373 57.624c-24.73-30.913-69.838-35.925-100.751-11.195s-35.925 69.838-11.195 100.751l409.6 512c28.695 35.869 83.25 35.869 111.945 0l409.6-512c24.73-30.913 19.718-76.021-11.195-100.751s-76.021-19.718-100.751 11.195l-353.627 442.034-353.627-442.034z" />
<glyph unicode="&#xe91f;" glyph-name="pagination_end" d="M819.201 485.008v384.404c0 28.876 22.923 52.188 51.2 52.188 27.45 0 51.2-23.365 51.2-52.188v-919.624c0-28.876-22.923-52.188-51.2-52.188-27.45 0-51.2 23.365-51.2 52.188v384.398l-487.702-390.159c-30.913-24.73-76.021-19.718-100.751 11.194s-19.718 76.020 11.195 100.75l442.034 353.625-442.034 353.625c-30.913 24.73-35.925 69.838-11.195 100.75s69.838 35.925 100.751 11.194l487.702-390.159z" />
<glyph unicode="&#xe920;" glyph-name="pagination_start" d="M307.2 485.007v384.404c0 28.876-22.923 52.188-51.2 52.188-27.45 0-51.2-23.365-51.2-52.188v-919.624c0-28.876 22.923-52.188 51.2-52.188 27.45 0 51.2 23.365 51.2 52.188v384.399l487.703-390.163c30.913-24.73 76.021-19.718 100.751 11.195s19.718 76.021-11.195 100.751l-442.034 353.627 442.034 353.627c30.913 24.73 35.925 69.838 11.195 100.751s-69.838 35.925-100.751 11.195l-487.703-390.163z" />
<glyph unicode="&#xe921;" glyph-name="dropdown_arrow_right" d="M180.506 35.491c-30.913-24.73-35.925-69.838-11.195-100.751s69.838-35.925 100.751-11.195l512 409.6c35.869 28.695 35.869 83.25 0 111.945l-512 409.6c-30.913 24.73-76.021 19.718-100.751-11.195s-19.718-76.021 11.195-100.751l442.034-353.627-442.034-353.627z" />
<glyph unicode="&#xe922;" glyph-name="partial_small" d="M409.6 819.2h204.8c169.662 0 307.2-137.538 307.2-307.2v-204.8c0-169.662-137.538-307.2-307.2-307.2h-204.8c-169.662 0-307.2 137.538-307.2 307.2v204.8c0 169.662 137.538 307.2 307.2 307.2z" />
<glyph unicode="&#xe923;" glyph-name="calendar" d="M358.871 870.4h307.2v26.087c0 13.869 10.959 25.113 25.84 25.113h50.72c14.271 0 25.84-11.011 25.84-25.113v-26.087h102.871c56.294 0 101.929-45.615 101.929-102.268v-665.864c0-56.481-45.988-102.268-101.929-102.268h-717.743c-56.294 0-101.929 45.615-101.929 102.268v665.864c0 56.481 45.988 102.268 101.929 102.268h102.871v26.087c0 13.869 10.959 25.113 25.84 25.113h50.72c14.271 0 25.84-11.011 25.84-25.113v-26.087zM256.471 768h-102.448c0.035 0.006 0.048-665.6 0.048-665.6h716.848c-0.035-0.006-0.048 665.6-0.048 665.6h-102.4v-26.087c0-13.869-10.959-25.113-25.84-25.113h-50.72c-14.271 0-25.84 11.011-25.84 25.113v26.087h-307.2v-26.087c0-13.869-10.959-25.113-25.84-25.113h-50.72c-14.271 0-25.84 11.011-25.84 25.113v26.087zM51.2 768c0.25 0 0.368-0.010 0.424 0h-0.424zM154.071 614.4h716.8v-102.4h-716.8v102.4z" />
<glyph unicode="&#xe924;" glyph-name="house" d="M819.2 153.128c0-28.016-23.33-50.728-50.964-50.728h-153.836v256h-204.8v-256h-153.836c-28.147 0-50.964 23.090-50.964 50.728v307.672h-75.267c-28.276 0-34.669 16.376-14.842 36.021l362.487 359.141c20.079 19.894 52.885 19.644 72.713 0l362.487-359.141c20.079-19.894 13.075-36.021-14.842-36.021h-78.337v-307.672z" />
<glyph unicode="&#xe925;" glyph-name="user_small" d="M512 460.8c113.108 0 204.8 91.692 204.8 204.8s-91.692 204.8-204.8 204.8c-113.108 0-204.8-91.692-204.8-204.8s91.692-204.8 204.8-204.8zM819.2 102.4c0 141.385-137.538 256-307.2 256s-307.2-114.615-307.2-256h614.4z" />
<glyph unicode="&#xe926;" glyph-name="play" d="M947.701 470.581c40.514-24.262 40.483-63.615 0-87.859l-618.344-370.291c-40.514-24.262-73.357-5.724-73.357 41.451v745.539c0 47.154 32.874 65.694 73.357 41.451l618.344-370.291z" />
<glyph unicode="&#xe927;" glyph-name="Unknown" d="M768.253 85.334c-0.29 0 0 469.333 0 469.333s-212.743 213.333-213.39 213.333h-298.863v-682.667h512.253zM170.667 768.393c0 46.911 37.864 84.941 85.317 84.941h298.879c23.456 0 56.234-13.764 72.842-30.372l195.199-195.199c16.806-16.806 30.429-49.866 30.429-73.181v-468.999c0-47.266-38.166-85.583-85.080-85.583h-512.507c-46.988 0-85.080 38.324-85.080 84.941v683.452zM554.667 554.667h213.333v-85.333h-213.081c-47.76 0-85.586 38.318-85.586 85.586v213.081h85.333v-213.333z" />
<glyph unicode="&#xe928;" glyph-name="Live" d="M491.26 216.645c-104.841 0-190.118 85.278-190.118 190.118 0 21.83 17.717 39.548 39.548 39.548s39.548-17.717 39.548-39.548c0-61.233 49.79-111.023 111.023-111.023 21.83 0 39.548-17.717 39.548-39.548s-17.717-39.548-39.548-39.548zM491.26 66.074c-187.851 0-340.689 152.838-340.689 340.689 0 21.83 17.717 39.548 39.548 39.548s39.548-17.717 39.548-39.548c0-144.23 117.364-261.594 261.594-261.594 21.83 0 39.548-17.717 39.548-39.548s-17.717-39.548-39.548-39.548zM491.26-84.497c-270.861 0-491.26 220.399-491.26 491.26 0 21.83 17.717 39.548 39.548 39.548 21.843 0 39.548-17.717 39.548-39.548 0-227.24 184.925-412.165 412.165-412.165 21.83 0 39.548-17.704 39.548-39.548 0-21.83-17.717-39.548-39.548-39.548zM683.139 405.88c-21.83 0-39.548 17.717-39.548 39.548 0 61.233-49.79 111.023-111.023 111.023-21.83 0-39.548 17.717-39.548 39.548s17.717 39.548 39.548 39.548c104.841 0 190.118-85.278 190.118-190.118 0-21.83-17.717-39.548-39.548-39.548zM833.71 405.88c-21.83 0-39.548 17.717-39.548 39.548 0 144.23-117.364 261.594-261.594 261.594-21.83 0-39.548 17.717-39.548 39.548s17.717 39.548 39.548 39.548c187.851 0 340.689-152.838 340.689-340.689 0-21.83-17.717-39.548-39.548-39.548zM984.281 405.88c-21.843 0-39.548 17.717-39.548 39.548 0 227.24-184.925 412.165-412.165 412.165-21.83 0-39.548 17.704-39.548 39.548 0 21.83 17.717 39.548 39.548 39.548 270.861 0 491.26-220.399 491.26-491.26 0-21.83-17.717-39.548-39.548-39.548z" />
<glyph unicode="&#xe929;" glyph-name="Playlist_Manual" d="M853.333 174.661v81.34h42.607c23.751 0 42.726 18.979 42.726 43.071v468.525c0 23.852-19.164 43.071-42.726 43.071h-597.215c-23.751 0-42.726-18.979-42.726-43.071v-42.262h-85.333v42.262c0 71.375 57.334 128.404 128.059 128.404h597.215c70.754 0 128.059-57.489 128.059-128.404v-468.525c0-71.375-57.334-128.404-128.059-128.404h-42.607v-42.661c0-70.695-57.305-128.005-128.059-128.005h-597.215c-70.725 0-128.059 56.916-128.059 128.005v469.323c0 70.695 57.305 128.005 128.059 128.005h597.215c70.725 0 128.059-56.916 128.059-128.005v-426.661c-0.056 1.315 0 2.647 0 3.994zM85.333 597.328v-469.323c0-23.776 18.944-42.672 42.726-42.672h597.215c23.621 0 42.726 19.1 42.726 42.672v469.323c0 23.776-18.944 42.672-42.726 42.672h-597.215c-23.621 0-42.726-19.1-42.726-42.672zM523.887 389.401c39.968-24.567 40.082-64.328 0-88.966l-110.185-67.728c-39.968-24.567-72.369-6.056-72.369 41.151v142.118c0 47.295 32.286 65.789 72.369 41.151l110.185-67.728z" />
<glyph unicode="&#xe92a;" glyph-name="Playlist_RuleBased" d="M554.667 341.334h-29.665c-11.894 0-15.945 7.624-8.876 17.263l68.548 93.475c6.992 9.534 18.25 9.639 25.319 0l68.548-93.475c6.992-9.534 3.091-17.263-8.876-17.263h-29.665c0-117.821-95.513-213.333-213.333-213.333-23.564 0-42.667 19.103-42.667 42.667s19.103 42.667 42.667 42.667c70.692 0 128 57.308 128 128zM298.667 341.334h29.665c11.968 0 15.868-7.729 8.876-17.263l-68.548-93.475c-7.069-9.639-18.327-9.534-25.319 0l-68.548 93.475c-7.069 9.639-3.018 17.263 8.876 17.263h29.665c0 117.821 95.513 213.333 213.333 213.333 23.564 0 42.667-19.103 42.667-42.667s-19.103-42.667-42.667-42.667c-70.692 0-128-57.308-128-128zM853.333 174.661v81.34h42.607c23.751 0 42.726 18.979 42.726 43.071v468.525c0 23.852-19.164 43.071-42.726 43.071h-597.215c-23.751 0-42.726-18.979-42.726-43.071v-42.262h-85.333v42.262c0 71.375 57.334 128.404 128.059 128.404h597.215c70.754 0 128.059-57.489 128.059-128.404v-468.525c0-71.375-57.334-128.404-128.059-128.404h-42.607v-42.661c0-70.695-57.305-128.005-128.059-128.005h-597.215c-70.725 0-128.059 56.916-128.059 128.005v469.323c0 70.695 57.305 128.005 128.059 128.005h597.215c70.725 0 128.059-56.916 128.059-128.005v-426.661c-0.056 1.315 0 2.647 0 3.994zM85.333 597.328v-469.323c0-23.776 18.944-42.672 42.726-42.672h597.215c23.621 0 42.726 19.1 42.726 42.672v469.323c0 23.776-18.944 42.672-42.726 42.672h-597.215c-23.621 0-42.726-19.1-42.726-42.672z" />
<glyph unicode="&#xe92b;" glyph-name="bulk" d="M99.694 362.667h28.306v-85.333h-90.576c-20.679 0-37.424 16.672-37.424 37.352v607.905c0 20.679 16.803 37.41 37.424 37.41h607.878c20.62 0 37.365-16.731 37.365-37.41v-90.59h-85.333v42.667h-512v-512h14.361zM269.506 195.245h29.161v-88.578h-90.906c0 0-37.094 0-37.094 42.667v603.43c0 20.207 16.647 36.57 37.094 36.57h602.767c20.447 0 42.806-36.57 42.806-36.57v-91.43h-85.333v42.667h-512v-508.755h13.506zM981.194-64h-602.767c0 0-37.094 5.993-37.094 26.2v613.8c0 42.667 37.094 42.667 37.094 42.667h602.709c0 0 42.864 0 42.864-42.667v-613.8l-42.806-26.2zM426.667 21.333h512v512h-512v-512z" />
<glyph unicode="&#xe92c;" glyph-name="live" d="M491.26 243.311c-104.841 0-190.118 85.278-190.118 190.118 0 21.83 17.717 39.548 39.548 39.548s39.548-17.717 39.548-39.548c0-61.233 49.79-111.023 111.023-111.023 21.83 0 39.548-17.717 39.548-39.548s-17.717-39.548-39.548-39.548zM677.141 429.192c-21.83 0-39.548 17.717-39.548 39.548 0 61.233-49.79 111.023-111.023 111.023-21.83 0-39.548 17.717-39.548 39.548s17.717 39.548 39.548 39.548c104.841 0 190.118-85.278 190.118-190.118 0-21.83-17.717-39.548-39.548-39.548zM491.26 92.74c-187.851 0-340.689 152.838-340.689 340.689 0 21.83 17.717 39.548 39.548 39.548s39.548-17.717 39.548-39.548c0-144.23 117.364-261.594 261.594-261.594 21.83 0 39.548-17.717 39.548-39.548s-17.717-39.548-39.548-39.548zM827.712 429.192c-21.83 0-39.548 17.717-39.548 39.548 0 144.23-117.364 261.594-261.594 261.594-21.83 0-39.548 17.717-39.548 39.548s17.717 39.548 39.548 39.548c187.851 0 340.689-152.838 340.689-340.689 0-21.83-17.717-39.548-39.548-39.548zM491.26-57.831c-270.861 0-491.26 220.399-491.26 491.26 0 21.83 17.717 39.548 39.548 39.548 21.843 0 39.548-17.717 39.548-39.548 0-227.24 184.925-412.165 412.165-412.165 21.83 0 39.548-17.704 39.548-39.548 0-21.83-17.717-39.548-39.548-39.548zM978.283 429.192c-21.843 0-39.548 17.717-39.548 39.548 0 227.24-184.925 412.165-412.165 412.165-21.83 0-39.548 17.704-39.548 39.548 0 21.83 17.717 39.548 39.548 39.548 270.861 0 491.26-220.399 491.26-491.26 0-21.83-17.717-39.548-39.548-39.548z" />
<glyph unicode="&#xe92d;" glyph-name="Upload" horiz-adv-x="1270" d="M629.267 524.73l152.361-148.646c16.891-16.468 16.891-43.11 0-59.578-8.397-8.262-19.504-12.365-30.553-12.365-11.030 0-22.060 4.103-30.534 12.365l-80.398 78.388v-402.078c0-23.269-19.369-42.154-43.235-42.154s-43.235 18.885-43.235 42.154v398.556l-76.786-74.791c-16.891-16.468-44.292-16.468-61.183 0-16.891 16.393-16.891 43.11 0 59.578l152.38 148.571c16.295 15.794 44.965 15.794 61.183 0zM998.861 635.886c144.425-12.665 235.699-99.166 235.776-227.596 0-128.374-105.763-232.805-235.699-232.805h-128.207c-23.866 0-43.235 18.885-43.235 42.154s19.369 42.154 43.235 42.154h128.207c80.84 0 149.152 67.99 149.152 148.496 0 90.754-69.887 144.899-186.834 144.899-22.213 0-40.91 16.543-43.005 38.126-14.335 144.992-137.892 254.256-287.486 254.256-101.555 0-193.809-50.51-246.806-135.1-7.878-12.59-21.848-20.197-36.933-20.197-145.463 0-255.126-92.009-255.126-213.919 0-119.437 97.942-216.561 218.425-216.561 23.866 0 43.235-18.885 43.235-42.154s-19.369-42.154-43.235-42.154c-168.137 0-304.895 134.95-304.895 300.87 0 160.187 137.738 287.174 317.808 297.497 70.329 98.060 183.587 155.952 307.528 155.952 181.569 0 333.719-123.971 368.095-293.919z" />
<glyph unicode="&#xe92e;" glyph-name="Users" d="M96.595 64c29.649 92.958 89.392 160 198.687 160s169.038-67.042 198.687-160h64.595c-36.838 128.35-118.177 224-263.282 224s-226.445-95.65-263.282-224h64.595zM295.282 352c-106.039 0-192 85.961-192 192s85.961 192 192 192c106.039 0 192-85.961 192-192s-85.961-192-192-192v0zM295.282 672c-70.692 0-128-57.308-128-128s57.308-128 128-128c70.692 0 128 57.308 128 128s-57.308 128-128 128v0zM572.65 256c34.428 58.195 88.559 96 170.632 96s136.204-37.805 170.632-96h69.138c-43.724 94.879-120.040 160-239.77 160s-196.046-65.121-239.77-160h69.138zM743.282 480c-106.039 0-192 85.961-192 192s85.961 192 192 192c106.039 0 192-85.961 192-192s-85.961-192-192-192v0zM743.282 800c-70.692 0-128-57.308-128-128s57.308-128 128-128c70.692 0 128 57.308 128 128s-57.308 128-128 128v0z" />
<glyph unicode="&#xe92f;" glyph-name="help_full" d="M0 426.667c0 282.624 229.376 512 512 512s512-229.376 512-512c0-282.624-229.376-512-512-512s-512 229.376-512 512zM558.545 147.394v93.091h-93.091v-93.091h93.091zM325.818 534.932h110.871c2.467 46.22 33.559 76.102 80.57 76.102 46.639 0 77.731-28.207 77.731-67.072s-15.965-58.927-68.748-90.391c-56.46-33.14-78.941-69.958-73.635-134.191l0.838-23.738h108.404v21.69c0 40.076 15.127 60.137 69.539 91.648 57.67 33.932 87.552 76.893 87.552 138.659 0 93.277-77.312 158.301-194.327 158.301-125.58 0-196.794-70.377-198.796-171.008v0z" />
<glyph unicode="&#xe930;" glyph-name="video" d="M42.667 768.393v-683.452c0-46.617 38.036-84.941 84.956-84.941h768.755c46.997 0 84.956 38.029 84.956 84.941v683.452c0 46.617-38.036 84.941-84.956 84.941h-768.755c-46.997 0-84.956-38.029-84.956-84.941zM298.667 384h426.667v-256h-426.667v256zM298.667 725.334h426.667v-256h-426.667v256zM128 725.334h85.333v-85.333h-85.333v85.333zM128 554.667h85.333v-85.333h-85.333v85.333zM128 384h85.333v-85.333h-85.333v85.333zM128 213.334h85.333v-85.333h-85.333v85.333zM810.667 725.334h85.333v-85.333h-85.333v85.333zM810.667 554.667h85.333v-85.333h-85.333v85.333zM810.667 384h85.333v-85.333h-85.333v85.333zM810.667 213.334h85.333v-85.333h-85.333v85.333z" />
<glyph unicode="&#xe931;" glyph-name="Arrow" d="M67.241 643.348c7.98-16.119 16.185-32.080 24.695-47.956 3.288-6.108 6.729-12.212 10.358-18.159 4.322-7.116 9.090-13.769 13.977-20.529 11.026-15.303 24.113-29.045 37.083-42.79 7.066-7.542 14.996-14.494 22.47-21.65 7.316-7.011 15.571-13.356 23.332-19.905 23.602-19.933 49.717-36.983 77.13-51.602 4.7-2.519 9.398-5.001 14.098-7.52 2.231-1.152 4.393-2.53 6.695-3.53 8.511-3.802 16.984-7.605 25.456-11.372 15.148-6.775 31.046-11.884 46.618-17.564 6.891-2.517 14.070-4.502 21.105-6.753 5.984-1.878 11.936-3.943 17.989-5.558 15.247-4.089 30.425-8.403 45.876-11.739 9.759-2.119 19.556-4.199 29.314-6.318 6.35-1.343 12.838-2.235 19.255-3.315 7.384-1.233 14.779-2.801 22.229-3.733 9.226-1.168 18.413-2.301 27.639-3.469 15.673-1.987 31.428-3.002 47.191-4.277 7.13-0.571 14.316-0.544 21.473-0.778 6.656-0.215 13.357-0.577 20.006-0.606 9.916-0.026 19.871-0.051 29.786-0.041 6.725 0.011 13.433 0.544 20.185 0.891s13.551 0.436 20.252 1.154c9.611 1.006 19.223 2.013 28.834 3.019 8.042 0.84 16.056 2.461 24.043 3.746 7.147 1.144 14.085 2.765 21.1 4.389s13.953 3.245 20.837 5.311c7.264 2.191 14.73 4.092 21.864 6.726 15.024 5.593 30.169 11.041 44.526 18.101 14.432 7.137 28.593 14.339 42.412 22.499-2.179-4.734-4.398-9.433-6.655-14.132-6.302-13.226-13.031-26.354-20.194-39.126-7.384-13.078-15.358-25.728-23.605-38.314-4.159-6.369-8.043-12.914-11.967-19.423-0.506-2.030 0.020-3.875 1.577-5.535 3.431-5.805 8.992-10.977 13.991-15.461 3.771-3.446 7.764-6.623 11.977-9.495 1.062-0.708 6.312-4.661 9.344-4.555 0.537 0.019 0.994 0.147 1.366 0.495 6.305 5.437 11.864 11.333 16.624 18.095 4.54 6.456 8.808 13.015 12.915 19.754 7.599 12.414 14.53 25.252 21.111 38.189 13.667 26.861 26.314 54.284 36.12 82.724 1.223 3.508 2.369 7.014 3.435 10.592 0.76 2.449 1.443 4.895 2.047 7.413 1.173 4.923 2.457 11.079 0.635 15.935-2.077 5.555-6.741 10.348-10.771 14.567-4.427 4.615-9.348 9.064-14.519 12.946-2.090 1.529-4.181 3.059-6.309 4.587-2.842 2.137-6.011 3.74-9.429 4.776-1.771 0.087-3.111-0.071-4.555-0.532-2.441 1.666-5.062 2.991-7.9 3.898-19.254-0.002-38.338 0.599-57.442 2.876-10.188 1.209-20.313 2.794-30.438 4.378-12.443 1.95-24.93 4.048-37.14 7.013-13.993 3.387-27.88 7.076-41.703 11.102-13.2 3.825-26.19 8.215-39.355 12.116-2.205 0.407-3.021-0.441-2.448-2.545 0.62-1.245 1.24-2.491 1.86-3.736 2.553-3.786 5.443-7.3 8.709-10.577 4.067-4.218 8.432-8.128 13.016-11.768 4.662-3.638 9.638-7.452 15.427-9.224 13.015-4.017 25.995-8.11 39.042-11.94 13.241-3.898 26.69-7.117 40.135-10.226 11.973-2.787 24.146-4.709 36.315-6.483 7.572-1.114 15.14-2.154 22.746-3.119-3.451-2.431-6.822-4.934-10.312-7.366-12.645-8.789-26.027-16.263-39.647-23.557-6.112-3.269-12.419-6.471-18.776-9.301-3.824-1.661-7.608-3.359-11.393-5.019-3.407-1.498-6.805-3.219-10.295-4.533-4.476-1.684-8.954-3.331-13.43-5.015-3.718-1.397-7.427-3.017-11.268-4.195-4.791-1.472-9.585-2.869-14.376-4.34-4.031-1.221-8.053-2.704-12.132-3.666-9.226-2.148-18.451-4.296-27.715-6.446-4.537-1.053-9.286-1.517-13.873-2.236-4.166-0.667-8.332-1.334-12.459-2-8.386-0.889-16.809-1.779-25.195-2.669-6.203-0.664-12.379-0.991-18.633-1.284-7.827-0.385-15.717-1.182-23.517-1.194-9.378 0.008-18.755 0.016-28.135 0.061-14.72 0.008-29.466 0.76-44.204 1.289-8.619 0.295-17.304 1.371-25.898 2.040-5.935 0.464-11.793 0.93-17.7 1.692-10.074 1.251-20.189 2.537-30.264 3.788-6.254 0.788-12.445 1.988-18.631 3.039-7.77 1.294-15.683 2.285-23.39 3.953-8.481 1.828-16.961 3.656-25.442 5.484-6.002 1.281-12.113 2.372-18.011 3.992-9.776 2.603-19.552 5.205-29.328 7.808-14.161 3.791-28.087 8.596-42.038 12.991-5.907 1.881-11.64 4.252-17.478 6.358-5.722 2.073-11.483 4.183-17.206 6.256-5.075 2.245-10.111 4.491-15.147 6.738-5.075 2.245-10.411 4.257-15.265 6.808-11.903 6.292-23.915 12.394-35.529 19.181-8.168 4.969-16.153 10.206-23.917 15.748-8.093 6.127-15.891 12.637-23.652 19.186-3.816 3.631-7.633 7.261-11.45 10.929-3.95 4.148-7.861 8.297-11.811 12.482-3.768 4.452-7.536 8.904-11.305 13.356 0.928-1.272 1.895-2.542 2.824-3.814-4.195 5.667-8.578 11.215-12.359 17.158-4.797 7.509-9.327 15.065-13.822 22.734-8.867 15.081-16.903 30.601-24.749 46.165-2.268 3.312-4.798 6.428-7.664 9.272-3.587 3.676-7.359 7.122-11.428 10.296-3.126 2.574-6.471 4.805-10.075 6.766-0.232 0.029-7.885 3.488-5.696-0.87l0.003-0.003z" />
<glyph unicode="&#xe932;" glyph-name="info" d="M42.667 426.667c0 259.072 210.261 469.333 469.333 469.333s469.333-210.261 469.333-469.333c0-259.072-210.261-469.333-469.333-469.333s-469.333 210.261-469.333 469.333zM512 512c-23.564 0-42.667-19.103-42.667-42.667v-256c0-23.564 19.103-42.667 42.667-42.667s42.667 19.103 42.667 42.667v256c0 23.564-19.103 42.667-42.667 42.667zM469.333 682.667v0-85.333h85.333v85.333h-85.333z" />
<glyph unicode="&#xe933;" glyph-name="Complete" d="M512-64c-282.77 0-512 229.23-512 512s229.23 512 512 512c282.77 0 512-229.23 512-512s-229.23-512-512-512zM450.471 402.115c-12.274 9.747-24.311 18.596-36.048 26.364-33.953 22.468-63.532 35.516-94.423 35.516-35.346 0-64-28.654-64-64s28.654-64 64-64c-1.339 0 9.381-4.729 23.786-14.261 8.412-5.566 17.532-12.272 27.086-19.859 11.936-9.478 23.859-19.769 35.099-30.068 6.696-6.135 11.568-10.804 14.017-13.235 27.935-27.729 74.043-23.908 97.034 8.040l241.791 336c20.646 28.69 14.125 68.684-14.565 89.33s-68.684 14.125-89.33-14.565l-200.409-278.494c-1.343 1.083-2.689 2.16-4.038 3.232z" />
<glyph unicode="&#xe935;" glyph-name="Error" d="M512-64c-282.77 0-512 229.23-512 512s229.23 512 512 512c282.77 0 512-229.23 512-512s-229.23-512-512-512zM448 448.59v-257.18c0-34.547 28.654-63.41 64-63.41 35.593 0 64 28.39 64 63.41v257.18c0 34.547-28.654 63.41-64 63.41-35.593 0-64-28.39-64-63.41zM512 576c35.346 0 64 28.654 64 64s-28.654 64-64 64c-35.346 0-64-28.654-64-64s28.654-64 64-64z" />
<glyph unicode="&#xe938;" glyph-name="Sync" d="M512-64c-282.77 0-512 229.23-512 512s229.23 512 512 512c282.77 0 512-229.23 512-512s-229.23-512-512-512zM728.843 620.186l-130.108-172.186h86.735c0-95.561-77.197-172.186-173.471-172.186v-86.093c143.116 0 260.206 116.223 260.206 258.279h86.735l-130.099 172.186zM512 706.279c-143.116 0-260.206-116.223-260.206-258.279h-86.735l130.099-172.186 130.108 172.186h-86.735c0 95.561 77.197 172.186 173.471 172.186 0 0 0 28.214 0 19.814v66.279z" />
<glyph unicode="&#xe93a;" glyph-name="Upload2" d="M512-64c-282.77 0-512 229.23-512 512s229.23 512 512 512c282.77 0 512-229.23 512-512s-229.23-512-512-512zM320 640c0-35.593 28.39-64 63.41-64h257.18c34.547 0 63.41 28.654 63.41 64 0 35.593-28.39 64-63.41 64h-257.18c-34.547 0-63.41-28.654-63.41-64zM320 448c0-35.593 28.39-64 63.41-64h257.18c34.547 0 63.41 28.654 63.41 64 0 35.593-28.39 64-63.41 64h-257.18c-34.547 0-63.41-28.654-63.41-64zM320 256c0-35.593 28.39-64 63.41-64h257.18c34.547 0 63.41 28.654 63.41 64 0 35.593-28.39 64-63.41 64h-257.18c-34.547 0-63.41-28.654-63.41-64z" />
</font>
</defs>
</svg>
